# xmcd
#
# Track frame offsets: 
#        225
#        16263
#        27660
#        47700
#        57800
#        80615
#        94063
#        110363
#        121590
#        137263
#
# Disc length: 2151 seconds
#
# Revision: 0
# Processed by: cddbd v1.5.2PL0 Copyright (c) Steve Scherf et al.
# Submitted via: ExactAudioCopy v0.99pb1
#
DISCID=7508640a
DTITLE=Mendelson Joe - Born to Cuddle
DYEAR=1988
DGENRE=Blues
TTITLE0=Mongers of the Lie
TTITLE1=Denise (a canine housepet)
TTITLE2=Cold - Old
TTITLE3=Dance with Joe
TTITLE4=Misanthropic Man
TTITLE5=Bron to Cuddle
TTITLE6=Lick and Sniff
TTITLE7=Goo
TTITLE8=Alien
TTITLE9=Respecting My Reward
EXTD=
EXTT0=
EXTT1=
EXTT2=
EXTT3=
EXTT4=
EXTT5=
EXTT6=
EXTT7=
EXTT8=
EXTT9=
PLAYORDER=
